<?xml version="1.0" encoding="UTF-8" standalone="no"?>
<svg
   width="48"
   height="48"
   viewBox="0 0 48 48"
   fill="none"
   version="1.1"
   id="svg102"
   xmlns:xlink="http://www.w3.org/1999/xlink"
   xmlns="http://www.w3.org/2000/svg"
   xmlns:svg="http://www.w3.org/2000/svg">
  <defs
     id="defs100">
    <linearGradient
       id="linearGradient6547">
      <stop
         style="stop-color:#c58d01;stop-opacity:1"
         offset="0"
         id="stop6543" />
      <stop
         style="stop-color:#a26e00;stop-opacity:1"
         offset="1"
         id="stop6545" />
    </linearGradient>
    <linearGradient
       id="b"
       x1="125.556"
       y1="3.948"
       x2="124.983"
       y2="198.52901"
       gradientUnits="userSpaceOnUse"
       gradientTransform="matrix(0.192,0,0,0.192,0,2.4)">
      <stop
         offset=".073"
         stop-color="#E09E02"
         id="stop20" />
      <stop
         offset=".248"
         stop-color="#AA7803"
         id="stop22" />
      <stop
         offset=".82"
         stop-color="#E1A42C"
         id="stop24" />
    </linearGradient>
    <linearGradient
       id="c"
       x1="18.889"
       y1="198.52901"
       x2="232.778"
       y2="198.52901"
       gradientUnits="userSpaceOnUse"
       gradientTransform="matrix(0.192,0,0,0.192,0,2.4)">
      <stop
         stop-color="#ECAE24"
         id="stop27" />
      <stop
         offset="0"
         stop-color="#ECAE24"
         id="stop29" />
      <stop
         offset="1"
         stop-color="#DFA32C"
         id="stop31" />
    </linearGradient>
    <linearGradient
       id="d"
       x1="338.10599"
       y1="9.6599998"
       x2="207.291"
       y2="187.57899"
       gradientUnits="userSpaceOnUse"
       gradientTransform="matrix(0.192,0,0,0.192,0,2.4)">
      <stop
         offset=".418"
         stop-color="#FAC32B"
         id="stop34" />
      <stop
         offset=".62"
         stop-color="#FFD867"
         id="stop36" />
      <stop
         offset=".949"
         stop-color="#FEDD7C"
         id="stop38" />
    </linearGradient>
    <linearGradient
       id="g"
       x1="62.775002"
       y1="147.79401"
       x2="198.33501"
       y2="224.82899"
       gradientUnits="userSpaceOnUse">
      <stop
         stop-color="#1393DD"
         id="stop41" />
      <stop
         offset=".895"
         stop-color="#0461AA"
         id="stop43" />
    </linearGradient>
    <linearGradient
       id="h"
       x1="96.916"
       y1="225"
       x2="175.22301"
       y2="147.909"
       gradientUnits="userSpaceOnUse">
      <stop
         offset=".316"
         stop-color="#0B86CE"
         id="stop46" />
      <stop
         offset=".857"
         stop-color="#005B8B"
         id="stop48" />
    </linearGradient>
    <radialGradient
       id="e"
       cx="0"
       cy="0"
       r="1"
       gradientUnits="userSpaceOnUse"
       gradientTransform="matrix(38.590093,31.764866,-65.027783,79.000118,7.8237834,13.835363)">
      <stop
         stop-color="#FED663"
         id="stop51" />
      <stop
         offset=".979"
         stop-color="#F6B504"
         id="stop53" />
    </radialGradient>
    <clipPath
       id="a">
      <path
         fill="#ffffff"
         d="M 0,0 H 250 V 225 H 0 Z"
         id="path56" />
    </clipPath>
    <filter
       id="f"
       x="28.85"
       y="139.30901"
       width="193.3"
       height="99.691002"
       filterUnits="userSpaceOnUse"
       color-interpolation-filters="sRGB">
      <feFlood
         flood-opacity="0"
         result="BackgroundImageFix"
         id="feFlood59" />
      <feColorMatrix
         in="SourceAlpha"
         values="0 0 0 0 0 0 0 0 0 0 0 0 0 0 0 0 0 0 127 0"
         result="hardAlpha"
         id="feColorMatrix61" />
      <feOffset
         dy="-5"
         id="feOffset63" />
      <feGaussianBlur
         stdDeviation="4.5"
         id="feGaussianBlur65" />
      <feComposite
         in2="hardAlpha"
         operator="out"
         id="feComposite67" />
      <feColorMatrix
         values="0 0 0 0 0 0 0 0 0 0 0 0 0 0 0 0 0 0 0.08 0"
         id="feColorMatrix69" />
      <feBlend
         in2="BackgroundImageFix"
         result="effect1_dropShadow_9_144"
         id="feBlend71"
         mode="normal" />
      <feColorMatrix
         in="SourceAlpha"
         values="0 0 0 0 0 0 0 0 0 0 0 0 0 0 0 0 0 0 127 0"
         result="hardAlpha"
         id="feColorMatrix73" />
      <feOffset
         dx="3"
         id="feOffset75" />
      <feGaussianBlur
         stdDeviation="5.5"
         id="feGaussianBlur77" />
      <feComposite
         in2="hardAlpha"
         operator="out"
         id="feComposite79" />
      <feColorMatrix
         values="0 0 0 0 0 0 0 0 0 0 0 0 0 0 0 0 0 0 0.1 0"
         id="feColorMatrix81" />
      <feBlend
         in2="effect1_dropShadow_9_144"
         result="effect2_dropShadow_9_144"
         id="feBlend83"
         mode="normal" />
      <feColorMatrix
         in="SourceAlpha"
         values="0 0 0 0 0 0 0 0 0 0 0 0 0 0 0 0 0 0 127 0"
         result="hardAlpha"
         id="feColorMatrix85" />
      <feOffset
         dx="-3"
         dy="4"
         id="feOffset87" />
      <feGaussianBlur
         stdDeviation="5"
         id="feGaussianBlur89" />
      <feComposite
         in2="hardAlpha"
         operator="out"
         id="feComposite91" />
      <feColorMatrix
         values="0 0 0 0 0 0 0 0 0 0 0 0 0 0 0 0 0 0 0.1 0"
         id="feColorMatrix93" />
      <feBlend
         in2="effect2_dropShadow_9_144"
         result="effect3_dropShadow_9_144"
         id="feBlend95"
         mode="normal" />
      <feBlend
         in="SourceGraphic"
         in2="effect3_dropShadow_9_144"
         result="shape"
         id="feBlend97"
         mode="normal" />
    </filter>
    <linearGradient
       xlink:href="#linearGradient6547"
       id="linearGradient6549"
       x1="86.165413"
       y1="53.360901"
       x2="160.45113"
       y2="212.94737"
       gradientUnits="userSpaceOnUse" />
    <linearGradient
       xlink:href="#linearGradient6547"
       id="linearGradient1153"
       gradientUnits="userSpaceOnUse"
       x1="86.165413"
       y1="53.360901"
       x2="160.45113"
       y2="212.94737" />
  </defs>
  <path
     d="M 0,4.782336 C 0,3.46656 1.050624,2.4 2.346624,2.4 H 14.20416 c 1.77024,0 3.449664,0.797376 4.584576,2.176896 l 1.781568,2.16576 a 2.333184,2.333184 0 0 0 1.801152,0.855168 h 23.28192 C 46.949376,7.597824 48,8.664384 48,9.98016 v 28.155072 c 0,1.315776 -1.050624,2.382336 -2.346624,2.382336 H 2.346624 C 1.050624,40.517568 0,39.451008 0,38.135232 Z"
     fill="url(#b)"
     id="path2"
     style="fill:url(#b);stroke-width:0.192" />
  <path
     d="m 0,25.7904 h 48 v 12.344832 c 0,1.315776 -1.050624,2.382336 -2.346624,2.382336 H 2.346624 C 1.050624,40.517568 0,39.451008 0,38.135232 Z"
     fill="url(#c)"
     id="path4"
     style="fill:url(#c);stroke-width:0.192" />
  <path
     d="M 0,14.208 C 0,12.570624 1.325376,11.24352 2.960256,11.24352 H 15.255552 A 7.39392,7.39392 0 0 0 19.67328,9.778176 l 0.873408,-0.65088 A 2.957568,2.957568 0 0 1 22.313856,8.54112 H 45.039552 C 46.674624,8.54112 48,9.868416 48,11.505792 V 14.208 c 0,1.637376 -1.325376,2.964864 -2.960448,2.964864 H 2.960448 C 1.325184,17.172864 0,15.845376 0,14.208 Z"
     fill="url(#d)"
     id="path6"
     style="fill:url(#d);stroke-width:0.192" />
  <path
     d="M 0,15.426624 C 0,13.742976 1.325376,12.37824 2.960256,12.37824 h 12.295296 c 1.59168,0 3.140736,-0.528192 4.417728,-1.506432 l 0.873408,-0.66912 A 2.904192,2.904192 0 0 1 22.313856,9.6 H 45.039552 C 46.674624,9.6 48,10.964736 48,12.648192 V 42.551808 C 48,44.235264 46.674624,45.6 45.039552,45.6 H 2.960448 C 1.325184,45.6 0,44.235264 0,42.551808 Z"
     fill="url(#e)"
     id="path8"
     style="fill:url(#e);stroke-width:0.192" />
  <text
     xml:space="preserve"
     style="font-size:18.432px;line-height:1.25;font-family:'Segoe Fluent Icons';-inkscape-font-specification:'Segoe Fluent Icons';stroke-width:0.192"
     x="11.368421"
     y="21.67218"
     id="text2488"><tspan
       id="tspan2486"
       x="11.368421"
       y="21.67218"
       style="stroke-width:0.192"></tspan></text>
  <g
     aria-label=""
     id="text4495"
     style="font-size:160px;line-height:1.25;font-family:'Segoe Fluent Icons';-inkscape-font-specification:'Segoe Fluent Icons, Normal';fill:url(#linearGradient6549);fill-opacity:1"
     transform="matrix(0.192,0,0,0.192,0,2.4)">
    <path
       d="m 205,134 q 0,11.01562 -2.89063,21.25 -2.8125,10.23437 -8.04687,19.14062 -5.23438,8.82813 -12.57813,16.17188 -7.26562,7.26562 -16.17187,12.5 -8.82813,5.23437 -19.0625,8.125 Q 136.01562,214 125,214 q -11.01562,0 -21.25,-2.8125 -10.234375,-2.89063 -19.140625,-8.125 -8.828125,-5.23438 -16.171875,-12.5 -7.265625,-7.34375 -12.5,-16.17188 Q 50.703125,165.48437 47.8125,155.25 45,145.01562 45,134 q 0,-11.01562 2.8125,-21.25 2.890625,-10.23437 8.125,-19.0625 5.234375,-8.90625 12.5,-16.171875 Q 75.78125,70.171875 84.609375,64.9375 93.515625,59.703125 103.75,56.890625 113.98438,54 125,54 q 11.01562,0 21.25,2.890625 10.23437,2.8125 19.0625,8.046875 8.90625,5.234375 16.17187,12.578125 7.34375,7.265625 12.57813,16.171875 5.23437,8.82813 8.04687,19.0625 Q 205,122.98438 205,134 Z M 73.125,180.95312 q 5,5.54688 10.9375,9.84375 5.9375,4.29688 12.578125,7.26563 6.640625,2.89062 13.750005,4.45312 Q 117.57813,204 125,204 q 9.76562,0 19.14062,-2.65625 9.45313,-2.65625 17.73438,-7.8125 -1.5625,-1.48438 -3.04688,-3.28125 -1.48437,-1.79688 -2.65625,-3.75 -1.09375,-1.95313 -1.79687,-4.0625 -0.625,-2.1875 -0.625,-4.45313 0,-3.28125 1.25,-6.09375 1.32812,-2.89062 3.28125,-5.23437 1.95312,-2.42188 4.21875,-4.45313 2.34375,-2.10937 4.29687,-3.90625 1.95313,-1.875 3.20313,-3.51562 1.32812,-1.64063 1.32812,-3.20313 0,-1.40625 -1.25,-2.42187 -1.17187,-1.09375 -2.5,-1.09375 -1.48437,0 -2.96875,0.70312 -1.40625,0.625 -2.8125,1.48438 -1.40625,0.78125 -2.8125,1.48437 -1.40625,0.625 -2.73437,0.625 -2.57813,0 -4.14063,-1.48437 -1.5625,-1.5625 -2.10937,-3.98438 -0.39063,-1.71875 -0.70313,-4.21875 -0.23437,-2.5 -0.625,-5.07812 -0.39062,-2.57813 -0.9375,-4.92188 -0.46875,-2.34375 -1.25,-3.75 -2.26562,-4.06249 -5.23437,-7.57812 -2.89063,-3.59375 -5.39063,-7.5 -0.85937,-1.40625 -1.32812,-2.57812 -0.39063,-1.25 -0.39063,-2.89063 0,-2.26562 0.9375,-4.14062 1.01563,-1.875 2.65625,-3.4375 2.1875,-2.031255 4.45313,-3.98438 2.26562,-1.953125 4.45312,-3.984375 4.45313,-4.140625 8.51563,-8.515625 4.14062,-4.375 8.125,-8.90625 Q 154.76562,69.859375 145,66.96875 135.23437,64 125,64 q -0.625,0 -1.25,0 -0.54687,0 -1.17187,0.07813 1.32812,2.34375 2.57812,5.46875 1.25,3.125 2.1875,6.484375 1.01562,3.28125 1.5625,6.640625 0.625,3.28125 0.625,5.9375 0,3.671875 -1.01563,7.265625 -0.93749,3.515625 -2.96874,6.562505 -1.79688,2.65625 -3.82813,4.375 -1.95312,1.71875 -4.29687,2.89063 -2.34375,1.17187 -5,1.95312 -2.57813,0.70313 -5.54688,1.25 -1.79687,0.39063 -3.59375,1.17188 -1.71875,0.78125 -2.73437,2.42187 -0.70313,1.09375 -0.937505,2.42188 Q 99.375,120.25 99.375,121.57813 q 0,2.5 0.625,4.92187 0.70313,2.34375 1.48438,4.6875 0.78125,2.34375 1.40625,4.6875 0.70312,2.34375 0.70312,4.84375 0,3.98437 -1.71875,6.64062 -1.64062,2.57813 -4.296875,4.29688 -2.65625,1.64062 -5.9375,2.65625 -3.28125,0.9375 -6.484375,1.64062 -1.40625,0.3125 -2.890625,0.85938 -1.484375,0.46875 -2.8125,1.32812 -1.25,0.78125 -2.265625,1.95313 -0.9375,1.09375 -1.171875,2.73437 z M 55,134 q 0,9.45312 2.5,18.51562 2.5,9.0625 7.265625,17.1875 0.390625,-2.1875 0.703125,-4.375 0.3125,-2.1875 0.703125,-4.375 0.625,-3.28125 2.265625,-5.70312 1.640625,-2.5 3.984375,-4.29688 2.34375,-1.875 5.15625,-3.04687 2.890625,-1.17188 5.9375,-1.79688 Q 84.53125,145.875 86.25,145.5625 87.96875,145.25 89.609375,144.625 91.25,144 92.421875,143.0625 q 1.171875,-0.9375 1.171875,-2.34375 0,-1.01563 -0.3125,-2.26563 -0.3125,-1.32812 -0.703125,-2.57812 -0.390625,-1.32813 -0.859375,-2.57813 -0.46875,-1.25 -0.78125,-2.26562 -1.5625,-4.6875 -1.5625,-9.45312 0,-7.89063 4.296875,-12.5 4.296875,-4.60938 11.796875,-6.09375 3.20313,-0.625 5.78125,-1.5625 2.65625,-1.01563 4.45313,-2.656255 1.875,-1.640625 2.8125,-4.0625 1.01562,-2.5 1.01562,-6.171875 0,-1.875 -0.46875,-4.21875 -0.39062,-2.421875 -1.09375,-4.84375 -0.625,-2.5 -1.48437,-4.765625 Q 115.625,72.4375 114.76563,70.71875 114.0625,69.3125 113.20313,67.984375 112.34375,66.65625 111.64063,65.25 99.296875,67.671875 88.90625,74 78.59375,80.328125 71.015625,89.46875 63.4375,98.609375 59.21875,110.01563 55,121.42188 55,134 Z m 140,0 q 0,-7.5 -1.5625,-14.76562 -1.5625,-7.26563 -4.60938,-13.98438 -3.04687,-6.796875 -7.5,-12.8125 -4.375,-6.015625 -10.07812,-10.9375 -3.28125,3.75 -6.48438,7.265625 -3.20312,3.4375 -6.5625,6.796875 -3.28125,3.28125 -6.79687,6.48438 -3.4375,3.20312 -7.26563,6.40625 1.32813,1.5625 2.5,3.28125 1.17188,1.64062 2.34375,3.28125 2.96875,4.14062 4.60938,6.71875 1.71875,2.57812 2.65625,5 1.01562,2.42187 1.5625,5.46874 0.625,3.04688 1.40625,8.04688 2.03125,-0.9375 4.21875,-1.5625 2.26562,-0.625 4.53125,-0.625 2.65625,0 5.07812,1.09375 2.42188,1.09375 4.29688,2.96875 1.875,1.875 2.96875,4.29687 1.09375,2.42188 1.09375,5.07813 0,3.04687 -1.32813,5.70312 -1.25,2.57813 -3.28125,4.92188 -1.95312,2.26562 -4.21875,4.375 -2.26562,2.03125 -4.29687,3.98437 -1.95313,1.875 -3.28125,3.75 -1.25,1.875 -1.25,3.82813 0,1.32812 0.625,2.65625 0.70312,1.32812 1.64062,2.57812 0.9375,1.25 2.03125,2.34375 1.09375,1.09375 2.03125,1.875 5.9375,-5 10.54688,-11.09375 4.60937,-6.09375 7.8125,-12.89062 3.20312,-6.875 4.84375,-14.29688 Q 195,141.8125 195,134 Z"
       style="fill:url(#linearGradient1153);fill-opacity:1"
       id="path6465" />
  </g>
</svg>
